<svg xmlns="http://www.w3.org/2000/svg" width="112.382" height="115.912" viewBox="0 0 112.382 115.912"><defs><style>.a{fill:#4a5d80;}.b{fill:none;stroke:#fff;stroke-miterlimit:10;stroke-width:6px;}.c{fill:#347474;}.d{fill:#49acab;}.e{fill:#5fe2a8;}</style></defs><g transform="translate(3.104 3)"><path class="a" d="M346.806,57.5c0-21.474,7.75-40.039,19.01-48.921a24.265,24.265,0,0,0-16.433-1.637c-18.108,4.97-26.331,32.529-18.365,61.555s29.1,48.528,47.211,43.56c.177-.049.345-.114.519-.166-17.819-1.706-31.942-25.4-31.942-54.391" transform="translate(-327.977 -3)"/><path class="b" d="M346.806,57.5c0-21.474,7.75-40.039,19.01-48.921a24.265,24.265,0,0,0-16.433-1.637c-18.108,4.97-26.331,32.529-18.365,61.555s29.1,48.528,47.211,43.56c.177-.049.345-.114.519-.166C360.929,110.185,346.806,86.49,346.806,57.5Z" transform="translate(-327.977 -3)"/><path class="c" d="M378.748,111.891c.681.065,1.366.109,2.058.109a21.578,21.578,0,0,0,3.378-.269,22.512,22.512,0,0,1-3.716-.44q-.844.336-1.72.6" transform="translate(-327.977 -3)"/><path class="b" d="M378.748,111.891c.681.065,1.366.109,2.058.109a21.578,21.578,0,0,0,3.378-.269,22.512,22.512,0,0,1-3.716-.44Q379.624,111.627,378.748,111.891Z" transform="translate(-327.977 -3)"/><path class="d" d="M381.544,20.959A49.3,49.3,0,0,1,397.193,9.744C392.333,5.449,386.748,3,380.806,3a24.089,24.089,0,0,0-14.991,5.579,45.13,45.13,0,0,1,15.729,12.38" transform="translate(-327.977 -3)"/><path class="b" d="M381.544,20.959A49.3,49.3,0,0,1,397.193,9.744C392.333,5.449,386.748,3,380.806,3a24.089,24.089,0,0,0-14.991,5.579A45.13,45.13,0,0,1,381.544,20.959Z" transform="translate(-327.977 -3)"/><path class="d" d="M376.962,110.259c-17.488-6.837-22.781-35.105-11.822-63.139a79.182,79.182,0,0,1,16.4-26.161,45.137,45.137,0,0,0-15.728-12.38c-11.26,8.882-19.01,27.448-19.01,48.921,0,28.99,14.123,52.685,31.942,54.391q.876-.264,1.72-.6a21.56,21.56,0,0,1-3.506-1.032" transform="translate(-327.977 -3)"/><path class="b" d="M376.962,110.259c-17.488-6.837-22.781-35.105-11.822-63.139a79.182,79.182,0,0,1,16.4-26.161,45.137,45.137,0,0,0-15.728-12.38c-11.26,8.882-19.01,27.448-19.01,48.921,0,28.99,14.123,52.685,31.942,54.391q.876-.264,1.72-.6A21.56,21.56,0,0,1,376.962,110.259Z" transform="translate(-327.977 -3)"/><path class="a" d="M416.649,8.74c-6.062-2.369-12.792-1.849-19.456,1C407.691,19.02,414.8,36.926,414.8,57.5c0,28.271-13.43,51.511-30.622,54.23,16.18.6,34.784-15.54,44.288-39.851,10.959-28.034,5.666-56.3-11.822-63.139" transform="translate(-327.977 -3)"/><path class="b" d="M416.649,8.74c-6.062-2.369-12.792-1.849-19.456,1C407.691,19.02,414.8,36.926,414.8,57.5c0,28.271-13.43,51.511-30.622,54.23,16.18.6,34.784-15.54,44.288-39.851C439.43,43.845,434.137,15.578,416.649,8.74Z" transform="translate(-327.977 -3)"/><path class="d" d="M414.806,57.5c0-20.574-7.114-38.479-17.612-47.756a49.29,49.29,0,0,0-15.65,11.215A77.967,77.967,0,0,1,396.594,50.5c7.628,27.8.4,54.234-16.126,60.789a22.417,22.417,0,0,0,3.716.439c17.191-2.718,30.622-25.959,30.622-54.23" transform="translate(-327.977 -3)"/><path class="b" d="M414.806,57.5c0-20.574-7.114-38.479-17.612-47.756a49.29,49.29,0,0,0-15.65,11.215A77.967,77.967,0,0,1,396.594,50.5c7.628,27.8.4,54.234-16.126,60.789a22.417,22.417,0,0,0,3.716.439C401.375,109.012,414.806,85.771,414.806,57.5Z" transform="translate(-327.977 -3)"/><path class="e" d="M376.962,110.259a21.56,21.56,0,0,0,3.506,1.032C397,104.737,404.222,78.3,396.594,50.5a77.967,77.967,0,0,0-15.05-29.543,79.182,79.182,0,0,0-16.4,26.161c-10.959,28.034-5.666,56.3,11.822,63.139" transform="translate(-327.977 -3)"/><path class="b" d="M376.962,110.259a21.56,21.56,0,0,0,3.506,1.032C397,104.737,404.222,78.3,396.594,50.5a77.967,77.967,0,0,0-15.05-29.543,79.182,79.182,0,0,0-16.4,26.161C354.181,75.154,359.474,103.422,376.962,110.259Z" transform="translate(-327.977 -3)"/></g></svg>