<svg xmlns="http://www.w3.org/2000/svg" width="295.236" height="87.81" viewBox="0 0 295.236 87.81">
  <g id="staffs-logo" transform="translate(0 1)">
    <g id="Group_10" data-name="Group 10" transform="translate(0 11.562)">
      <text id="STAFFORDSHIRE" transform="translate(10 22)" fill="#232a36" font-size="23" font-family="Montserrat-Bold, Montserrat" font-weight="700" letter-spacing="-0.005em"><tspan x="0" y="0">STAFFORDSHIRE</tspan></text>
      <text id="UNIVERSITY" transform="translate(0 53.476)" fill="#232a36" font-size="35" font-family="Montserrat-Bold, Montserrat" font-weight="700"><tspan x="0" y="0">UNIVERSITY</tspan></text>
    </g>
    <g id="staffs-uni-icon" transform="translate(213.569 2)">
      <path id="Path_15" data-name="Path 15" d="M341.914,43.947c0-15.8,5.737-29.467,14.071-36a18.055,18.055,0,0,0-12.164-1.2c-13.4,3.658-19.49,23.94-13.594,45.3S351.769,87.755,365.173,84.1c.131-.036.255-.084.384-.122-13.19-1.256-23.643-18.694-23.643-40.029" transform="translate(-327.977 -3)" fill="#4a5d80" stroke="#fff" stroke-width="6"/>
      <path id="Path_17" data-name="Path 17" d="M378.748,111.891c.681.065,1.366.109,2.058.109a21.578,21.578,0,0,0,3.378-.269,22.512,22.512,0,0,1-3.716-.44q-.844.336-1.72.6" transform="translate(-341.879 -32)" fill="#347474" stroke="#fff" stroke-width="6"/>
      <path id="Path_18" data-name="Path 18" d="M378.748,111.891c.681.065,1.366.109,2.058.109a21.578,21.578,0,0,0,3.378-.269,22.512,22.512,0,0,1-3.716-.44Q379.624,111.627,378.748,111.891Z" transform="translate(-341.879 -32)" fill="none" stroke="#fff" stroke-miterlimit="10" stroke-width="6"/>
      <path id="Path_19" data-name="Path 19" d="M377.458,16.217a36.488,36.488,0,0,1,11.583-8.254A18.326,18.326,0,0,0,376.911,3a17.892,17.892,0,0,0-11.1,4.106,33.379,33.379,0,0,1,11.643,9.111" transform="translate(-337.807 -3)" fill="#49acab" stroke="#fff" stroke-width="6"/>
      <path id="Path_21" data-name="Path 21" d="M369.127,83.411c-12.945-5.032-16.862-25.836-8.751-46.467A58.229,58.229,0,0,1,372.519,17.69a33.383,33.383,0,0,0-11.642-9.111c-8.335,6.537-14.071,20.2-14.071,36,0,21.335,10.454,38.774,23.643,40.029q.648-.194,1.273-.442a16.029,16.029,0,0,1-2.6-.76" transform="translate(-332.869 -3)" fill="#49acab" stroke="#fff" stroke-width="6"/>
      <path id="Path_23" data-name="Path 23" d="M408.214,8.345c-4.487-1.743-9.469-1.361-14.4.739,7.771,6.827,13.036,20,13.036,35.146,0,20.806-9.941,37.91-22.666,39.911,11.976.441,25.747-11.437,32.782-29.329,8.112-20.632,4.194-41.435-8.751-46.467" transform="translate(-342.579 -3)" fill="#4a5d80" stroke="#fff" stroke-width="6"/>
      <path id="Path_25" data-name="Path 25" d="M405.885,44.89c0-15.142-5.266-28.319-13.036-35.146A36.482,36.482,0,0,0,381.264,18,57.262,57.262,0,0,1,392.4,39.74c5.646,20.458.3,39.914-11.936,44.738a16.685,16.685,0,0,0,2.751.323c12.725-2,22.666-19.1,22.666-39.911" transform="translate(-341.614 -3)" fill="#49acab" stroke="#fff" stroke-width="6"/>
      <path id="Path_27" data-name="Path 27" d="M372.408,86.68a16.031,16.031,0,0,0,2.6.76c12.235-4.823,17.583-24.28,11.936-44.738A57.263,57.263,0,0,0,375.8,20.959a58.23,58.23,0,0,0-12.142,19.253c-8.112,20.632-4.194,41.436,8.751,46.467" transform="translate(-336.149 -8.148)" fill="#5fe2a8" stroke="#fff" stroke-width="6"/>
    </g>
  </g>
</svg>
