<svg id="Layer_1" data-name="Layer 1" xmlns="http://www.w3.org/2000/svg" viewBox="0 0 295.24 87.81"><defs><style>.cls-1{isolation:isolate;}.cls-2{fill:#232a36;}.cls-3{fill:#4a5d80;}.cls-3,.cls-4,.cls-5,.cls-6,.cls-7{stroke:#fff;stroke-width:6px;}.cls-4{fill:#347474;}.cls-5{fill:none;stroke-miterlimit:10;}.cls-6{fill:#49acab;}.cls-7{fill:#5fe2a8;}</style></defs><title>staffs-logo</title><g id="staffs-logo"><g id="Group_10" data-name="Group 10"><g id="STAFFORDSHIRE" class="cls-1"><g class="cls-1"><path class="cls-2" d="M16.75,22.83a1.27,1.27,0,0,0,.63,1.11,11.44,11.44,0,0,0,2.92,1,8.23,8.23,0,0,1,3.55,1.69,4.16,4.16,0,0,1,1.27,3.29,4.35,4.35,0,0,1-1.62,3.51,6.51,6.51,0,0,1-4.27,1.34,9.88,9.88,0,0,1-6.88-2.83l2.14-2.62q2.61,2.28,4.81,2.28a2.46,2.46,0,0,0,1.55-.43,1.42,1.42,0,0,0,0-2.3A7.91,7.91,0,0,0,18.45,28a10.33,10.33,0,0,1-4.11-1.74A4.11,4.11,0,0,1,13,22.9a4.14,4.14,0,0,1,1.65-3.53,6.6,6.6,0,0,1,4.1-1.25,9.79,9.79,0,0,1,3.22.56,8.53,8.53,0,0,1,2.81,1.56L23,22.86a7,7,0,0,0-4.32-1.58,2.2,2.2,0,0,0-1.42.42A1.39,1.39,0,0,0,16.75,22.83Z"/><path class="cls-2" d="M34.76,34.57H31.17v-13H26.62V18.49H39.31V21.6H34.76Z"/><path class="cls-2" d="M50.62,31.09H43.89l-1.5,3.48H38.58l6.94-16.08H49l6.95,16.08H52.12Zm-5.38-3.15h4l-2-4.66Z"/><path class="cls-2" d="M68.75,21.64H61.3v3.48h7.08v3.15H61.3v6.3H57.71V18.49h11Z"/><path class="cls-2" d="M82.73,21.64H75.28v3.48h7.08v3.15H75.28v6.3H71.69V18.49h11Z"/><path class="cls-2" d="M87.2,32.35a7.93,7.93,0,0,1-2.44-5.92A8,8,0,0,1,87.2,20.5a8.75,8.75,0,0,1,12,0,8,8,0,0,1,2.44,5.93,8,8,0,0,1-2.44,5.92,8.75,8.75,0,0,1-12,0Zm6-11.1a4.41,4.41,0,0,0-3.39,1.52,5.54,5.54,0,0,0,0,7.32,4.56,4.56,0,0,0,6.78,0,5.54,5.54,0,0,0,0-7.32A4.41,4.41,0,0,0,93.21,21.25Z"/><path class="cls-2" d="M114.56,28.82l4.07,5.75h-4.41l-3.57-5.13h-2.48v5.13h-3.59V18.49h6.1q3.75,0,5.34,1.27a4.86,4.86,0,0,1,1.6,4.07C117.62,26.4,116.6,28.07,114.56,28.82Zm-.59-5a2,2,0,0,0-.69-1.78,4.44,4.44,0,0,0-2.42-.49h-2.69v4.76h2.62a3.93,3.93,0,0,0,2.51-.59A2.45,2.45,0,0,0,114,23.84Z"/><path class="cls-2" d="M135.79,26.45a7.9,7.9,0,0,1-2.24,5.93c-1.49,1.46-3.78,2.19-6.84,2.19h-5.5V18.49h5.68q4.3,0,6.6,2.11A7.5,7.5,0,0,1,135.79,26.45Zm-3.61.09a4.82,4.82,0,0,0-1.32-3.64,5.66,5.66,0,0,0-4.06-1.28h-2v9.77h2.28a5.3,5.3,0,0,0,3.78-1.24A4.72,4.72,0,0,0,132.18,26.54Z"/><path class="cls-2" d="M141.94,22.83a1.27,1.27,0,0,0,.63,1.11,11.44,11.44,0,0,0,2.92,1A8.28,8.28,0,0,1,149,26.61a4.19,4.19,0,0,1,1.26,3.29,4.35,4.35,0,0,1-1.62,3.51,6.49,6.49,0,0,1-4.26,1.34,9.86,9.86,0,0,1-6.88-2.83l2.14-2.62a7.61,7.61,0,0,0,4.81,2.28,2.48,2.48,0,0,0,1.55-.43A1.35,1.35,0,0,0,146.6,30a1.37,1.37,0,0,0-.59-1.15,7.91,7.91,0,0,0-2.37-.86,10.33,10.33,0,0,1-4.11-1.74,4.11,4.11,0,0,1-1.3-3.35,4.14,4.14,0,0,1,1.65-3.53,6.58,6.58,0,0,1,4.1-1.25,9.83,9.83,0,0,1,3.22.56A8.64,8.64,0,0,1,150,20.24l-1.82,2.62a7.07,7.07,0,0,0-4.32-1.58,2.2,2.2,0,0,0-1.42.42A1.39,1.39,0,0,0,141.94,22.83Z"/><path class="cls-2" d="M166.84,18.49V34.57h-3.59V28.24h-6.39v6.33h-3.59V18.49h3.59v6.72h6.39V18.49Z"/><path class="cls-2" d="M174.3,18.49V34.57h-3.59V18.49Z"/><path class="cls-2" d="M188.14,28.82l4.07,5.75h-4.42l-3.56-5.13h-2.48v5.13h-3.59V18.49h6.09q3.75,0,5.35,1.27a4.86,4.86,0,0,1,1.6,4.07C191.2,26.4,190.18,28.07,188.14,28.82Zm-.6-5a2,2,0,0,0-.69-1.78,4.4,4.4,0,0,0-2.41-.49h-2.69v4.76h2.62a4,4,0,0,0,2.51-.59A2.45,2.45,0,0,0,187.54,23.84Z"/><path class="cls-2" d="M206.38,21.69h-8V25h7.19v3.06h-7.19v3.33h8.25v3.18H194.79V18.49h11.59Z"/></g></g><g id="UNIVERSITY" class="cls-1"><g class="cls-1"><path class="cls-2" d="M18.35,59.72a7.23,7.23,0,0,0,1.34-4.63V41.57h5.46V55.26c0,3.55-1,6.27-2.94,8.18a10.35,10.35,0,0,1-7.52,2.85,10.38,10.38,0,0,1-7.54-2.87c-2-1.92-3-4.63-3-8.16V41.57H9.65V55.09A7.17,7.17,0,0,0,11,59.72a4.46,4.46,0,0,0,3.68,1.7A4.41,4.41,0,0,0,18.35,59.72Z"/><path class="cls-2" d="M53.4,41.57V66H47.94L36.28,50.71V66H30.82V41.57h5.11l12,15.76V41.57Z"/><path class="cls-2" d="M64.88,41.57V66H59.42V41.57Z"/><path class="cls-2" d="M86.16,41.57h5.91L82.24,66H77.62L67.78,41.57H73.7l6.23,15.58Z"/><path class="cls-2" d="M112.62,46.44H100.44v5h11v4.66h-11v5.07H113V66H95V41.57h17.64Z"/><path class="cls-2" d="M133.06,57.29,139.25,66h-6.72l-5.42-7.8h-3.78V66h-5.46V41.57h9.27c3.81,0,6.52.65,8.14,1.93s2.43,3.35,2.43,6.2Q137.71,55.58,133.06,57.29Zm-.91-7.58A3.1,3.1,0,0,0,131.1,47a6.75,6.75,0,0,0-3.68-.73h-4.09v7.24h4c1.86,0,3.14-.3,3.81-.91A3.68,3.68,0,0,0,132.15,49.71Z"/><path class="cls-2" d="M148.25,48.17a1.93,1.93,0,0,0,1,1.7,17.44,17.44,0,0,0,4.44,1.49,12.47,12.47,0,0,1,5.41,2.57,6.34,6.34,0,0,1,1.93,5,6.61,6.61,0,0,1-2.47,5.34,9.87,9.87,0,0,1-6.49,2A15,15,0,0,1,141.56,62l3.26-4q3.94,3.47,7.31,3.46a3.78,3.78,0,0,0,2.36-.65,2.17,2.17,0,0,0-.05-3.5,12.19,12.19,0,0,0-3.6-1.31,15.66,15.66,0,0,1-6.25-2.64q-2-1.64-2-5.11a6.36,6.36,0,0,1,2.5-5.38A10.13,10.13,0,0,1,151.36,41a15,15,0,0,1,4.9.83,13.14,13.14,0,0,1,4.27,2.38l-2.76,4a10.8,10.8,0,0,0-6.58-2.42,3.33,3.33,0,0,0-2.16.65A2.11,2.11,0,0,0,148.25,48.17Z"/><path class="cls-2" d="M171.1,41.57V66h-5.46V41.57Z"/><path class="cls-2" d="M187.48,66H182V46.3h-6.93V41.57h19.32V46.3h-6.93Z"/><path class="cls-2" d="M203.47,66V56.38L195,41.57h5.92l5.28,9.11,5.29-9.11h5.92l-8.48,14.81V66Z"/></g></g></g><g id="staffs-uni-icon"><path id="Path_15" data-name="Path 15" class="cls-3" d="M229,44c0-15.8,5.74-29.47,14.07-36a18.09,18.09,0,0,0-12.16-1.2c-13.4,3.66-19.49,23.94-13.59,45.3s21.54,35.71,34.94,32.05l.39-.12C239.49,82.73,229,65.29,229,44"/><path id="Path_17" data-name="Path 17" class="cls-4" d="M252,82.9c.68.06,1.36.1,2.05.1a22.53,22.53,0,0,0,3.38-.26,23.05,23.05,0,0,1-3.71-.44c-.57.22-1.14.42-1.72.6"/><path id="Path_18" data-name="Path 18" class="cls-5" d="M252,82.9c.68.06,1.36.1,2.05.1a22.53,22.53,0,0,0,3.38-.26,23.05,23.05,0,0,1-3.71-.44C253.12,82.52,252.55,82.72,252,82.9Z"/><path id="Path_19" data-name="Path 19" class="cls-6" d="M254.75,16.22A36.49,36.49,0,0,1,266.33,8,18.32,18.32,0,0,0,254.2,3a17.89,17.89,0,0,0-11.1,4.11,33.39,33.39,0,0,1,11.64,9.11"/><path id="Path_21" data-name="Path 21" class="cls-6" d="M251.35,83.42c-12.94-5-16.86-25.84-8.75-46.47a58.14,58.14,0,0,1,12.15-19.26A33.45,33.45,0,0,0,243.1,8.58c-8.33,6.54-14.07,20.2-14.07,36,0,21.34,10.46,38.78,23.65,40,.43-.13.85-.27,1.27-.44a15.51,15.51,0,0,1-2.6-.76"/><path id="Path_23" data-name="Path 23" class="cls-3" d="M280.73,8.35c-4.49-1.74-9.47-1.36-14.4.74,7.77,6.83,13,20,13,35.14,0,20.81-9.94,37.91-22.67,39.92,12,.44,25.75-11.44,32.78-29.33,8.12-20.64,4.2-41.44-8.75-46.47"/><path id="Path_25" data-name="Path 25" class="cls-6" d="M279.37,44.89c0-15.14-5.27-28.31-13-35.14A36.49,36.49,0,0,0,254.75,18a57.3,57.3,0,0,1,11.13,21.74c5.65,20.46.3,39.92-11.93,44.74a16.8,16.8,0,0,0,2.75.33c12.72-2,22.66-19.1,22.66-39.92"/><path id="Path_27" data-name="Path 27" class="cls-7" d="M251.36,81.54a16.51,16.51,0,0,0,2.6.76c12.23-4.83,17.58-24.28,11.93-44.74a57.31,57.31,0,0,0-11.14-21.74,58,58,0,0,0-12.14,19.25c-8.12,20.63-4.2,41.43,8.75,46.47"/></g></g></svg>